<?xml version="1.0" standalone="no"?>
<!DOCTYPE svg PUBLIC "-//W3C//DTD SVG 20010904//EN"
 "http://www.w3.org/TR/2001/REC-SVG-20010904/DTD/svg10.dtd">
<svg version="1.0" xmlns="http://www.w3.org/2000/svg"
 width="1161.000000pt" height="1280.000000pt" viewBox="0 0 1161.000000 1280.000000"
 preserveAspectRatio="xMidYMid meet">
<g transform="translate(0.000000,1280.000000) scale(0.100000,-0.100000)"
 stroke="none">
<path d="M9253 12766 c-121 -42 -170 -65 -238 -116 -43 -32 -58 -54 -107 -151
-80 -158 -78 -133 4 49 11 24 17 46 14 49 -8 8 -77 -50 -201 -171 -61 -59
-122 -114 -137 -122 -16 -8 -28 -18 -28 -23 0 -4 -28 -30 -62 -57 -35 -27 -89
-75 -121 -106 -32 -32 -60 -58 -63 -58 -3 0 -59 -45 -124 -101 -65 -56 -131
-109 -146 -120 -16 -10 -56 -38 -89 -63 -33 -25 -101 -70 -151 -100 -51 -31
-111 -77 -134 -103 -29 -33 -40 -41 -36 -25 7 21 -7 32 -18 13 -3 -5 -48 -35
-98 -66 -51 -32 -118 -80 -148 -108 -30 -28 -70 -57 -89 -64 -44 -19 -96 -59
-200 -156 -46 -43 -101 -89 -122 -103 -20 -13 -50 -39 -64 -59 -15 -19 -33
-35 -39 -35 -6 0 -19 -13 -29 -29 -9 -16 -35 -44 -57 -61 -21 -17 -42 -40 -45
-51 -4 -10 -11 -17 -16 -13 -15 9 -114 -81 -129 -116 -7 -16 -20 -30 -29 -30
-16 0 -143 -132 -271 -281 -19 -23 -44 -51 -56 -62 -12 -12 -31 -41 -43 -64
-15 -31 -28 -43 -44 -43 -14 0 -40 -21 -74 -58 -28 -31 -83 -92 -122 -135 -39
-43 -71 -85 -71 -93 0 -8 -6 -13 -12 -11 -7 1 -29 -31 -49 -71 -22 -45 -39
-68 -43 -60 -5 11 -7 11 -12 0 -4 -8 -37 -48 -74 -90 -37 -43 -75 -92 -84
-109 -9 -18 -20 -33 -24 -33 -13 0 -52 -76 -52 -101 0 -17 -3 -20 -9 -10 -6
10 -14 5 -33 -20 -24 -32 -73 -113 -110 -180 -9 -17 -23 -38 -32 -48 -9 -9
-19 -32 -22 -49 -4 -17 -11 -29 -16 -26 -5 3 -12 -5 -15 -17 -4 -13 -28 -65
-55 -116 -26 -51 -48 -100 -48 -108 0 -9 -7 -18 -15 -21 -26 -10 -116 -320
-144 -494 -6 -36 -15 -139 -21 -230 -7 -107 -16 -170 -24 -180 -7 -8 -39 -73
-72 -145 -32 -71 -61 -134 -65 -138 -12 -16 -74 19 -76 42 -1 12 -7 48 -14 79
-7 31 -13 59 -14 62 -4 21 -41 121 -53 144 -13 27 -13 31 4 43 10 7 35 13 56
13 34 0 41 4 52 32 8 18 12 38 9 45 -3 7 -1 13 5 13 12 0 27 36 47 116 23 92
21 99 -31 129 -25 15 -43 32 -40 38 2 7 14 43 26 82 l22 69 -21 50 c-18 44
-19 52 -7 71 20 31 57 159 59 205 1 24 6 40 14 40 14 0 32 55 40 127 4 41 2
59 -15 86 -11 19 -23 47 -26 63 -4 16 -22 49 -41 73 -33 41 -34 46 -19 62 14
16 14 20 -5 57 -11 22 -34 51 -51 65 -16 14 -30 29 -30 33 0 4 25 4 55 0 l56
-6 -15 28 c-15 30 -64 82 -77 82 -4 0 -15 24 -23 54 -23 78 -53 100 -128 92
-52 -5 -58 -4 -58 13 0 23 -70 88 -104 97 -33 8 -76 -14 -101 -53 -11 -17 -35
-38 -53 -47 -30 -15 -33 -15 -39 0 -3 9 -24 24 -46 34 -37 17 -44 17 -69 4
-25 -13 -61 -58 -71 -88 -2 -6 -25 -9 -53 -8 -84 4 -138 -49 -151 -149 -5 -34
-11 -41 -52 -60 -122 -56 -209 -104 -236 -129 -16 -15 -41 -31 -55 -35 -140
-41 -201 -284 -115 -461 17 -35 24 -66 24 -102 -1 -44 3 -56 30 -87 32 -37 37
-54 22 -70 -16 -18 -42 -112 -35 -128 3 -9 24 -22 46 -29 48 -14 55 -28 41
-81 -9 -31 -8 -43 2 -53 11 -11 14 -10 18 6 7 27 27 25 27 -2 1 -26 16 -48 44
-63 17 -10 51 -94 42 -103 -9 -8 -191 -25 -291 -27 -95 -2 -244 11 -365 30
-57 10 -190 25 -260 30 -303 24 -324 29 -434 99 -131 84 -321 169 -661 296
-146 55 -289 121 -414 192 -70 39 -79 41 -152 41 -72 0 -85 -3 -175 -47 -59
-28 -128 -53 -173 -61 -63 -12 -81 -21 -112 -51 -20 -19 -58 -46 -85 -58 -64
-30 -214 -143 -214 -161 0 -20 46 -30 76 -16 38 17 44 14 34 -16 -10 -29 -40
-206 -40 -234 0 -25 36 -30 57 -8 49 50 65 81 63 127 -4 79 4 73 9 -7 6 -91
16 -106 50 -72 16 16 21 34 21 71 0 82 19 128 69 166 24 19 48 34 54 34 5 0
29 10 53 22 39 19 48 20 84 9 22 -6 40 -18 40 -26 0 -7 -34 -44 -76 -82 -81
-73 -109 -112 -99 -143 17 -52 99 -23 201 72 38 35 89 77 113 93 24 16 58 49
75 72 17 23 36 42 41 43 16 0 127 -83 285 -216 210 -174 307 -248 470 -355
215 -141 312 -183 460 -199 77 -9 239 -31 315 -44 17 -3 68 -10 115 -16 47 -7
96 -14 110 -15 26 -4 271 -27 490 -45 68 -6 126 -12 127 -14 1 -1 -18 -27 -43
-56 -24 -30 -60 -77 -78 -105 -164 -246 -173 -265 -211 -431 -23 -99 -23 -101
-6 -185 10 -46 24 -100 31 -120 13 -36 12 -38 -44 -132 -58 -97 -109 -153
-149 -161 -12 -3 -49 -10 -82 -16 -33 -6 -107 -25 -165 -41 -97 -27 -177 -54
-475 -162 -60 -21 -186 -61 -280 -88 -201 -58 -198 -58 -396 26 -183 77 -210
81 -289 40 -25 -13 -71 -36 -103 -51 -66 -30 -82 -50 -92 -111 -4 -23 -13 -47
-21 -54 -11 -9 -11 -15 -3 -25 8 -10 4 -36 -15 -101 -30 -103 -31 -113 -10
-113 9 0 14 -3 12 -7 -8 -16 -70 -150 -90 -193 -39 -88 -73 -155 -90 -179 -10
-13 -18 -32 -18 -43 0 -11 -7 -26 -15 -34 -8 -9 -15 -26 -15 -40 0 -13 -16
-58 -35 -100 -19 -41 -35 -77 -35 -79 0 -2 -15 -36 -34 -77 -51 -111 -116
-256 -306 -683 -32 -71 -62 -129 -67 -128 -4 1 -20 -22 -36 -52 -15 -30 -30
-55 -33 -55 -2 0 -2 24 2 53 4 28 4 49 0 45 -4 -3 -10 -28 -14 -54 -8 -54 -37
-75 -45 -32 -4 20 -4 20 -6 -4 0 -16 -5 -28 -11 -28 -6 0 -7 -18 -3 -45 8 -61
-11 -66 -84 -22 -101 61 -112 63 -65 17 26 -25 41 -48 38 -56 -3 -8 1 -17 9
-20 19 -8 19 -24 1 -24 -8 0 -16 -5 -18 -11 -2 -7 -27 -12 -58 -13 -58 -1 -70
-8 -70 -42 0 -19 5 -20 63 -17 l62 4 -25 -20 -25 -21 44 15 c46 16 71 8 55
-17 -5 -7 -7 -23 -5 -36 1 -12 -7 -39 -19 -60 -12 -20 -15 -29 -7 -19 25 30
28 19 7 -23 -32 -64 -15 -46 21 20 38 72 54 78 33 13 -9 -27 -18 -61 -21 -78
-4 -28 -3 -27 17 10 11 22 27 51 35 65 l15 25 1 -35 c1 -34 1 -34 10 9 8 43
29 80 29 52 0 -11 3 -11 15 -1 8 7 15 27 15 45 0 17 3 35 7 38 3 4 40 -11 81
-34 40 -22 76 -39 78 -37 2 2 -17 21 -41 42 -25 20 -45 43 -45 51 0 7 -6 15
-12 18 -24 8 -1 17 83 33 111 21 117 23 100 33 -11 7 -10 11 5 20 15 10 9 11
-34 5 -49 -5 -52 -5 -52 16 0 17 -4 21 -17 15 -10 -4 -36 -10 -58 -13 -36 -5
-39 -4 -27 11 10 12 11 21 2 36 -8 16 -7 26 5 44 8 13 13 26 10 29 -11 10 533
1115 558 1136 8 7 18 24 22 39 3 14 13 32 20 40 8 8 15 23 15 32 0 10 7 24 15
31 8 7 15 21 15 32 0 10 26 67 57 126 31 59 67 136 79 171 l23 64 49 3 c28 1
79 14 113 29 45 18 96 29 167 36 57 5 113 14 124 20 11 6 45 12 76 14 54 4
291 43 303 50 3 2 150 9 327 15 313 10 421 21 642 64 215 41 277 62 319 107
l20 21 60 -126 c34 -70 61 -129 61 -131 0 -3 15 -37 34 -77 97 -209 124 -282
131 -353 4 -33 16 -91 27 -128 18 -59 27 -72 64 -97 46 -32 67 -75 97 -200 28
-111 29 -122 34 -251 11 -273 -67 -443 -313 -679 -100 -96 -236 -203 -304
-239 -67 -36 -83 -48 -70 -53 7 -2 -28 -26 -76 -53 -124 -70 -209 -134 -196
-147 11 -11 153 21 251 57 94 34 294 144 395 217 22 15 41 26 43 24 2 -2 -13
-27 -34 -55 -40 -53 -73 -129 -73 -169 0 -12 7 -38 15 -57 l14 -35 -77 -55
c-92 -65 -220 -130 -357 -180 -142 -51 -133 -47 -112 -52 10 -3 31 0 47 6 17
5 30 6 30 2 0 -5 -39 -23 -87 -40 -49 -18 -97 -36 -108 -41 -11 -5 -38 -14
-60 -22 -22 -7 -49 -19 -60 -26 -17 -12 -11 -13 55 -7 96 8 160 24 287 68 77
27 111 34 142 30 52 -7 185 34 261 79 30 19 96 55 145 82 50 26 99 56 109 65
22 19 24 29 -19 -149 -15 -63 -28 -122 -30 -130 -2 -8 -11 -49 -20 -90 -8 -41
-20 -97 -25 -125 -6 -27 -12 -61 -15 -75 -21 -107 -33 -253 -25 -325 10 -101
31 -152 95 -240 64 -87 103 -120 182 -157 55 -25 74 -28 160 -28 99 0 176 19
267 66 17 9 65 31 107 49 42 18 145 64 230 103 85 38 186 79 224 90 39 12 121
37 184 57 125 40 418 113 484 121 41 5 43 3 77 -43 80 -109 164 -170 320 -233
145 -59 160 -72 189 -161 13 -40 94 -217 181 -393 252 -513 278 -569 366 -805
72 -193 111 -315 164 -518 8 -31 15 -41 25 -37 8 4 15 12 15 18 0 7 9 30 19
52 39 81 89 438 75 533 -8 52 -49 112 -147 217 -87 94 -39 63 58 -36 43 -45
81 -77 83 -70 5 15 -37 188 -55 223 -7 15 -13 33 -12 40 1 6 -1 19 -4 27 -3 8
-11 34 -17 57 -8 31 -19 47 -46 63 -19 12 -33 25 -30 27 3 3 21 -5 40 -17 l36
-22 0 32 c0 23 -10 40 -42 70 -41 38 -42 38 -12 32 20 -5 94 -74 254 -237 237
-242 311 -323 403 -443 151 -199 327 -372 485 -478 48 -32 116 -93 179 -161
59 -64 132 -131 174 -159 40 -27 96 -70 123 -95 28 -25 60 -49 71 -53 11 -3
29 -19 40 -35 42 -63 78 -63 110 2 20 41 19 48 -14 94 -16 22 -31 49 -35 60
-4 12 -13 27 -21 33 -8 7 -15 21 -15 32 0 10 -18 36 -40 58 -22 22 -40 48 -40
60 0 11 0 21 -1 23 0 1 -7 27 -14 57 -8 30 -36 120 -64 200 -28 80 -52 156
-55 170 -2 14 -13 63 -24 110 -11 47 -23 110 -26 140 -8 67 -38 164 -66 220
-16 31 -32 46 -66 61 -69 29 -120 25 -198 -16 -104 -54 -106 -53 -237 83 -63
64 -142 153 -175 197 -106 140 -360 508 -393 570 -68 126 -210 288 -348 397
-83 66 -129 95 -208 130 -64 28 -82 46 -72 70 4 12 32 16 134 21 70 3 173 15
228 27 89 18 120 20 275 14 141 -5 184 -3 220 9 25 8 68 20 95 26 28 7 68 17
90 23 22 6 64 12 94 14 75 4 88 19 71 79 -14 52 -33 65 -94 69 -23 2 -51 8
-62 13 -10 6 -25 8 -32 6 -7 -3 -19 1 -27 7 -10 8 -32 10 -68 6 -50 -7 -57 -5
-105 29 -28 19 -87 49 -129 66 -163 64 -318 148 -433 233 -124 92 -161 114
-229 131 -42 11 -43 13 -45 53 -2 33 -10 51 -37 80 -47 50 -73 82 -67 82 2 0
19 -11 38 -25 43 -32 64 -33 54 -2 -4 12 -7 29 -6 37 1 22 -30 184 -44 233 -4
13 1 17 20 17 19 0 26 5 26 20 0 12 7 20 18 20 9 1 30 11 46 24 22 19 27 29
23 48 -4 14 -3 28 1 32 4 4 8 22 9 39 2 18 5 50 7 72 3 22 7 81 10 132 l6 91
-49 59 c-27 32 -63 67 -80 78 -34 22 -42 38 -13 28 30 -12 104 -76 182 -158
41 -43 91 -92 110 -109 39 -36 50 -46 107 -113 118 -136 143 -163 203 -229 36
-39 73 -83 83 -97 9 -14 23 -24 30 -21 9 3 18 -9 25 -34 7 -21 35 -74 64 -118
127 -195 180 -271 208 -301 30 -32 188 -312 218 -387 27 -68 315 -442 426
-552 55 -56 164 -168 241 -250 77 -82 154 -162 170 -179 17 -16 56 -61 88
-100 31 -38 77 -92 102 -120 l45 -50 -6 33 c-9 47 3 39 17 -10 6 -24 21 -56
33 -73 31 -42 179 -277 270 -427 42 -70 99 -178 127 -240 28 -62 58 -126 66
-141 l14 -29 21 24 c11 13 35 53 54 90 l34 68 -28 62 c-16 35 -52 103 -81 152
-28 49 -51 91 -51 93 0 18 29 -25 87 -128 37 -65 72 -118 77 -116 41 14 72
249 62 472 -6 126 -11 163 -34 229 l-27 80 -89 61 c-86 60 -178 111 -240 135
-16 6 -27 12 -25 15 10 9 145 -46 212 -87 112 -67 147 -80 147 -54 0 25 -108
231 -134 255 -17 16 -24 31 -20 45 3 13 -8 42 -28 76 -29 48 -39 56 -85 70
-61 18 -84 35 -33 25 19 -3 43 -9 53 -11 13 -4 17 1 17 19 0 32 -36 77 -61 77
-20 0 -79 26 -79 35 0 2 13 2 30 -1 42 -9 63 1 51 23 -5 10 -24 50 -41 88 -34
73 -74 125 -97 125 -7 0 -13 5 -13 10 0 6 4 10 8 10 20 0 9 42 -14 52 -13 6
-24 19 -24 28 0 9 -18 33 -40 55 -21 21 -37 42 -35 45 3 4 -2 13 -10 20 -8 7
-12 16 -9 21 3 5 -10 15 -28 23 -22 10 -27 15 -14 15 28 1 2 29 -46 48 -34 13
-36 17 -22 27 14 11 13 14 -10 29 -14 10 -26 24 -26 33 0 8 -7 17 -15 20 -9 4
-13 15 -11 30 3 16 -3 29 -18 41 -12 10 -21 23 -19 29 2 6 -8 19 -22 28 -15
10 -24 24 -21 31 2 7 -11 35 -30 62 -19 26 -34 53 -34 59 0 10 -31 82 -51 118
-6 10 -13 62 -16 115 l-6 96 -131 133 c-72 73 -145 143 -163 155 -30 20 -44
47 -25 47 11 0 50 -28 98 -69 117 -101 211 -167 222 -157 6 6 -30 165 -64 282
-13 45 -24 88 -24 97 0 8 -16 35 -35 60 -29 37 -32 46 -19 51 12 4 14 13 9 29
-15 50 -27 93 -29 107 -1 8 -8 25 -14 37 -10 18 -10 23 -1 23 14 0 448 -203
495 -231 17 -11 34 -19 38 -19 3 0 -15 30 -40 67 -38 56 -207 383 -198 383 4
0 63 -107 121 -220 60 -117 173 -272 218 -300 19 -12 55 -44 82 -73 35 -39 41
-43 24 -17 -12 19 -31 55 -43 80 -74 166 -134 289 -155 315 -52 67 -120 172
-131 202 -6 18 -34 61 -62 95 -28 35 -72 90 -98 122 -55 69 -172 197 -253 278
-32 31 -66 69 -75 83 -15 23 -15 27 -1 43 13 15 14 21 2 50 -13 30 -13 34 5
52 17 17 18 21 4 34 -12 13 -13 23 -4 56 6 22 8 46 4 52 -4 7 -8 53 -9 102 -1
50 -6 99 -10 109 -4 10 -3 17 4 17 6 0 8 7 4 16 -5 14 -3 14 15 3 16 -10 26
-10 47 -1 21 10 30 9 50 -4 28 -18 47 -11 39 14 -3 9 8 1 24 -18 23 -26 39
-35 66 -37 20 -1 36 2 36 6 0 5 20 12 45 15 33 5 50 3 69 -9 14 -9 30 -14 35
-10 6 3 21 -1 33 -9 41 -27 103 -44 199 -56 51 -6 115 -18 141 -27 40 -13 51
-13 64 -2 13 10 17 10 24 -1 5 -8 12 -12 15 -8 4 3 -6 30 -20 60 l-27 53 27
-30 c33 -37 -58 140 -117 227 -46 69 -50 92 -13 75 29 -14 116 -139 170 -247
63 -126 80 -146 133 -159 26 -7 74 -20 107 -29 33 -9 63 -16 67 -15 4 2 46 -6
95 -17 48 -10 113 -23 143 -29 193 -37 331 -62 440 -80 69 -11 136 -24 149
-27 l24 -7 -29 49 c-15 27 -40 67 -54 89 -43 65 -161 297 -157 309 2 6 17 -13
33 -42 29 -54 153 -245 219 -337 52 -72 75 -90 152 -115 37 -12 104 -34 148
-50 155 -53 174 -58 193 -53 11 2 25 16 31 30 10 21 7 30 -21 69 -23 33 -29
47 -20 53 9 5 9 12 -3 27 -8 10 -15 31 -15 45 0 15 -16 69 -36 120 -19 52 -38
103 -41 114 -3 11 -15 33 -26 49 -11 15 -23 42 -26 60 -10 48 -79 93 -376 241
-148 74 -265 135 -259 135 20 0 202 -80 351 -154 144 -72 173 -84 173 -70 0
12 -74 144 -81 144 -4 0 -17 20 -29 45 -12 24 -37 58 -56 74 -19 17 -34 33
-34 37 0 4 -17 26 -37 49 -21 23 -49 55 -63 71 -14 16 -36 37 -50 46 l-25 17
40 2 c22 1 45 0 50 -1 100 -21 231 -60 316 -96 60 -24 115 -44 123 -44 18 0
36 30 36 60 0 56 -181 189 -219 161 -9 -6 -29 -18 -46 -27 l-30 -17 23 25 c36
39 28 53 -50 88 -121 54 -289 110 -330 110 -23 0 -37 4 -35 12 2 10 -38 28
-143 63 -80 27 -137 59 -159 91 -11 16 -40 43 -63 60 -65 45 -157 142 -205
216 -24 37 -53 73 -65 79 -32 17 -181 5 -256 -21 -44 -15 -67 -19 -74 -12 -14
14 -1 32 19 25 9 -4 22 2 32 14 9 12 45 27 86 38 58 15 89 29 133 61 2 1 -4
14 -13 28 -12 18 -15 36 -11 58 4 18 7 45 7 61 0 37 13 34 38 -8 21 -36 54
-43 71 -15 5 8 19 11 36 8 16 -3 47 0 69 7 22 7 36 14 30 14 -16 2 95 38 157
51 32 6 66 10 75 9 35 -5 136 12 363 59 98 20 209 39 293 48 26 3 47 9 47 13
0 3 21 7 48 7 113 2 304 13 309 17 2 3 -17 18 -43 33 -26 15 -42 30 -36 32 7
2 24 -5 39 -16 59 -40 86 -43 262 -27 403 36 419 39 407 70 -3 10 5 15 27 17
38 4 97 74 97 118 0 36 -67 92 -169 141 l-76 36 -35 -28 c-44 -37 -62 -38 -27
-1 15 15 27 31 27 34 0 6 -81 39 -141 57 -33 10 -123 28 -262 52 -53 9 -61 7
-100 -15 -47 -27 -191 -80 -183 -68 3 5 36 21 75 36 72 28 97 48 86 66 -3 5
-18 10 -33 10 -15 0 -52 7 -82 15 -30 8 -74 15 -98 15 -24 0 -53 5 -65 12 -12
6 -51 19 -87 29 -36 10 -103 32 -150 48 -47 17 -97 30 -112 31 -16 0 -28 4
-28 9 0 4 -21 14 -47 21 -63 15 -143 50 -168 71 -24 21 -164 89 -183 89 -7 0
-15 7 -18 15 -4 8 -12 15 -20 15 -8 0 -14 4 -14 9 0 9 15 16 117 52 35 12 67
27 72 33 24 29 41 129 43 242 1 95 3 112 11 84 5 -19 7 -99 5 -177 l-5 -142
51 19 c28 10 72 20 97 24 25 3 65 14 90 24 52 23 159 125 159 152 0 10 4 22
10 25 11 7 76 140 121 249 32 77 29 89 -26 105 -32 9 -106 3 -262 -19 -45 -6
-90 -10 -100 -8 -32 7 198 48 304 54 119 8 116 4 115 123 -1 56 -5 79 -17 87
-8 6 -15 17 -15 24 0 7 -11 25 -25 42 -14 16 -25 36 -25 43 0 8 -8 20 -18 27
-11 7 -24 23 -31 36 -7 13 -49 58 -93 100 -67 63 -108 119 -108 146 0 2 14 7
30 11 26 6 29 9 19 22 -11 12 -8 13 16 7 20 -5 26 -4 21 5 -4 6 -1 11 9 11 10
0 13 5 9 11 -5 9 1 10 22 5 27 -6 28 -5 10 9 -17 13 -17 15 -3 15 9 0 27 11
41 25 14 14 23 25 21 25 -2 0 1 14 6 30 6 17 15 30 20 30 4 0 6 7 3 15 -4 9 0
15 7 15 8 1 1 8 -16 17 -27 15 -28 17 -10 24 11 4 14 8 8 8 -19 1 -16 22 5 37
11 9 13 16 6 21 -6 5 -12 30 -13 58 -1 27 -7 55 -13 63 -17 20 -64 42 -89 42
-20 0 -20 1 -6 24 18 27 13 36 -20 36 -16 0 -23 6 -23 20 0 12 -10 24 -22 30
-13 5 -17 9 -10 9 20 1 -9 41 -30 41 -10 0 -24 16 -36 43 -10 23 -33 55 -51
70 -18 15 -30 31 -27 35 3 5 -13 19 -34 31 -24 13 -40 30 -40 41 0 19 -19 30
-54 30 -40 0 -146 -41 -198 -77 -28 -20 -81 -49 -117 -66 -36 -17 -93 -48
-126 -69 -83 -52 -116 -50 -57 4 32 30 95 67 299 177 84 46 159 92 167 103 8
11 28 29 45 39 17 10 31 24 31 31 0 7 -60 69 -132 139 -137 130 -171 178 -62
86 115 -97 264 -207 282 -207 17 0 93 37 102 50 3 3 29 19 58 35 28 15 52 32
52 37 0 10 42 72 52 76 4 2 3 14 -2 26 -6 16 -4 32 5 50 8 14 12 26 11 26 -2
0 0 19 5 43 6 32 4 46 -8 59 -9 10 -13 26 -10 38 3 13 0 23 -9 27 -20 7 -17
30 5 42 33 18 103 39 201 60 87 19 224 62 236 74 3 2 -8 25 -23 50 -99 162
-114 189 -111 193 2 2 20 -19 39 -46 19 -27 58 -81 88 -120 52 -68 56 -71 88
-66 18 3 50 9 71 12 44 7 88 45 95 82 3 15 11 41 18 59 11 26 11 46 0 115 -24
154 -29 167 -66 174 -34 6 -196 -20 -228 -37 -10 -6 -21 -8 -24 -6 -12 12 59
36 151 51 54 8 100 17 103 19 7 7 -29 101 -49 130 -24 33 -84 73 -140 93 -61
21 -104 6 -195 -66 l-78 -63 60 62 c68 71 60 73 -59 15 -37 -19 -74 -34 -80
-34 -7 0 -34 -14 -60 -30 -26 -17 -52 -28 -58 -24 -5 3 -23 -3 -39 -15 -15
-11 -35 -21 -43 -21 -24 0 -129 -49 -153 -72 -12 -11 -34 -22 -48 -23 -14 -2
-31 -8 -38 -13 -34 -27 -281 -162 -297 -162 -11 0 -34 13 -52 29 -18 15 -43
33 -55 40 -29 15 -29 38 -2 67 20 22 20 23 2 32 -10 6 -46 16 -81 23 -34 7
-62 17 -62 22 0 4 8 6 18 3 9 -2 53 -7 97 -11 l80 -6 48 47 c26 25 50 58 53
73 11 56 -76 179 -151 213 -32 14 -96 -23 -158 -92 -25 -27 -48 -50 -52 -50
-13 0 79 103 112 124 18 11 33 24 33 28 0 14 -40 28 -97 34 -49 4 -74 -1 -160
-30z m-4797 -2942 c14 -9 29 -24 34 -34 8 -15 4 -16 -48 -8 -31 5 -58 11 -60
13 -2 2 1 13 8 24 13 25 32 27 66 5z m-956 -1103 c0 -10 -9 -6 -30 14 -16 16
-30 35 -30 44 0 10 9 6 30 -14 17 -16 30 -35 30 -44z m1165 -138 c10 -21 22
-46 27 -56 5 -10 7 -21 5 -25 -3 -4 -2 -57 2 -119 6 -89 11 -116 26 -133 18
-20 18 -21 -1 -35 -21 -16 -54 -29 -59 -23 -2 2 0 21 5 43 18 75 13 123 -14
140 -25 17 -25 35 4 112 9 25 9 37 -3 60 -21 41 -30 73 -19 73 5 0 17 -17 27
-37z m-750 -403 c4 -6 -6 -10 -22 -10 -22 0 -25 2 -13 10 19 12 27 12 35 0z
m819 -472 c4 -24 3 -38 -4 -38 -5 0 -10 19 -10 42 0 49 5 47 14 -4z m-1074
-76 c0 -4 -16 -24 -37 -43 -36 -34 -36 -28 -1 24 19 26 38 36 38 19z m927
-725 c-24 -52 -49 -97 -55 -101 -6 -3 13 43 41 104 29 61 53 106 55 101 2 -6
-17 -53 -41 -104z m52 -24 c2 -65 -30 -428 -58 -638 l-7 -60 -31 66 c-66 142
-77 275 -33 419 21 71 112 289 120 290 3 0 7 -35 9 -77z m-3251 -860 c12 -3
22 -9 22 -14 0 -5 14 -18 30 -28 l30 -18 -37 -15 c-84 -35 -163 -55 -163 -42
0 7 9 18 21 25 21 11 21 19 4 76 -6 17 -2 22 17 26 12 2 30 2 38 -1 8 -2 25
-7 38 -9z m3624 -2478 c184 -288 220 -347 214 -352 -3 -3 -48 0 -99 7 -143 19
-328 -1 -502 -54 -44 -13 -82 -22 -84 -20 -2 2 7 18 21 36 78 103 262 420 283
487 17 55 37 93 44 85 5 -5 60 -90 123 -189z m1426 88 c34 -24 62 -48 62 -54
0 -21 -29 -5 -90 52 -72 67 -66 68 28 2z m-2659 15 c-17 -33 -204 -211 -266
-254 -53 -36 -296 -129 -317 -121 -6 3 3 10 19 16 71 27 187 91 285 156 115
77 138 95 220 172 59 57 77 66 59 31z"/>
<path d="M170 4850 c0 -5 5 -10 10 -10 6 0 10 5 10 10 0 6 -4 10 -10 10 -5 0
-10 -4 -10 -10z"/>
<path d="M807 4529 c7 -7 15 -10 18 -7 3 3 -2 9 -12 12 -14 6 -15 5 -6 -5z"/>
<path d="M875 4380 c-3 -5 -1 -10 4 -10 6 0 11 5 11 10 0 6 -2 10 -4 10 -3 0
-8 -4 -11 -10z"/>
<path d="M1090 4359 c0 -5 5 -7 10 -4 6 3 10 8 10 11 0 2 -4 4 -10 4 -5 0 -10
-5 -10 -11z"/>
<path d="M90 3949 c0 -5 5 -7 10 -4 6 3 10 8 10 11 0 2 -4 4 -10 4 -5 0 -10
-5 -10 -11z"/>
<path d="M100 3760 c0 -5 5 -10 10 -10 6 0 10 5 10 10 0 6 -4 10 -10 10 -5 0
-10 -4 -10 -10z"/>
<path d="M610 3690 c0 -5 5 -10 10 -10 6 0 10 5 10 10 0 6 -4 10 -10 10 -5 0
-10 -4 -10 -10z"/>
</g>
</svg>
